<svg xmlns="http://www.w3.org/2000/svg" width="32" height="32" viewBox="0 0 32 32">
  <g id="in_floor" transform="translate(3 3)">
    <path id="패스_617" data-name="패스 617" d="M12.855,19.856,5.521,14.19l-1,.778a.556.556,0,0,0,0,.878L12.177,21.8a1.111,1.111,0,0,0,1.356,0l7.644-5.933a.556.556,0,0,0,0-.878l-1-.778Zm-.689-3.089a1.111,1.111,0,0,0,1.367,0l6.544-5.133,1.111-.789a.567.567,0,0,0,0-.889L13.533,4.023a1.111,1.111,0,0,0-1.356,0L4.533,9.979a.556.556,0,0,0,0,.878l1,.778Z" transform="translate(0.145 0.088)" fill="#fff"/>
    <rect id="사각형_1633" data-name="사각형 1633" width="32" height="32" transform="translate(-3 -3)" fill="none"/>
  </g>
</svg>
